<?xml version="1.0" encoding="UTF-8" standalone="no"?>
<!-- Created with Inkscape (http://www.inkscape.org/) -->

<svg
   xmlns:dc="http://purl.org/dc/elements/1.1/"
   xmlns:cc="http://creativecommons.org/ns#"
   xmlns:rdf="http://www.w3.org/1999/02/22-rdf-syntax-ns#"
   xmlns:svg="http://www.w3.org/2000/svg"
   xmlns="http://www.w3.org/2000/svg"
   xmlns:sodipodi="http://sodipodi.sourceforge.net/DTD/sodipodi-0.dtd"
   xmlns:inkscape="http://www.inkscape.org/namespaces/inkscape"
   width="384.29999"
   height="422.10001"
   id="svg3700"
   version="1.1"
   inkscape:version="0.48.5 r10040"
   sodipodi:docname="New document 1">
  <defs
     id="defs3702">
    <clipPath
       id="clipPath4271"
       clipPathUnits="userSpaceOnUse">
      <path
         id="path4273"
         d="m 580,580.1 0,0 -1.1,-9.8 -3,-9.2 -4.9,-8.7 -6.5,-7.8 -8,-7 -9.3,-6.1 -10.5,-4.8 -11.5,-3.7 -12.3,-2.3 -12.9,-0.7 0,0 0,0 -13,0.7 -12.3,2.3 -11.5,3.7 -10.5,4.8 -9.3,6.1 -8,7 -6.5,7.8 -4.9,8.7 -3,9.2 -1,9.8 0,0 0,0 1,9.7 3,9.3 4.9,8.6 6.5,7.9 8,7 9.3,6 10.5,4.9 11.5,3.7 12.3,2.3 13,0.8 0,0 0,0 12.9,-0.8 12.3,-2.3 11.5,-3.7 10.5,-4.9 9.3,-6 8,-7 6.5,-7.9 4.9,-8.6 3,-9.3 1.1,-9.7 0,0 0,0 m 100,200.3 0,0 -1.1,-9.8 -3,-9.2 -4.9,-8.7 -6.5,-7.8 -8,-7 -9.3,-6.1 -10.5,-4.8 -11.5,-3.7 -12.3,-2.3 -12.9,-0.7 0,0 0,0 -13,0.7 -12.3,2.3 -11.5,3.7 -10.5,4.8 -9.3,6.1 -8,7 -6.5,7.8 -4.9,8.7 -3,9.2 -1,9.8 0,0 0,0 1,9.7 3,9.2 4.9,8.7 6.5,7.8 8,7.1 9.3,6 10.5,4.8 11.5,3.7 12.3,2.3 13,0.8 0,0 0,0 12.9,-0.8 12.3,-2.3 11.5,-3.7 10.5,-4.8 9.3,-6 8,-7.1 6.5,-7.8 4.9,-8.7 3,-9.2 1.1,-9.7 0,0 0,0 M 0,0 1360,0 1360,1760 0,1760 0,0 z"
         inkscape:connector-curvature="0" />
    </clipPath>
    <clipPath
       id="clipPath4253"
       clipPathUnits="userSpaceOnUse">
      <path
         id="path4255"
         d="m 580,580.1 0,0 -1.1,-9.8 -3,-9.2 -4.9,-8.7 -6.5,-7.8 -8,-7 -9.3,-6.1 -10.5,-4.8 -11.5,-3.7 -12.3,-2.3 -12.9,-0.7 0,0 0,0 -13,0.7 -12.3,2.3 -11.5,3.7 -10.5,4.8 -9.3,6.1 -8,7 -6.5,7.8 -4.9,8.7 -3,9.2 -1,9.8 0,0 0,0 1,9.7 3,9.3 4.9,8.6 6.5,7.9 8,7 9.3,6 10.5,4.9 11.5,3.7 12.3,2.3 13,0.8 0,0 0,0 12.9,-0.8 12.3,-2.3 11.5,-3.7 10.5,-4.9 9.3,-6 8,-7 6.5,-7.9 4.9,-8.6 3,-9.3 1.1,-9.7 0,0 0,0 m 100,200.3 0,0 -1.1,-9.8 -3,-9.2 -4.9,-8.7 -6.5,-7.8 -8,-7 -9.3,-6.1 -10.5,-4.8 -11.5,-3.7 -12.3,-2.3 -12.9,-0.7 0,0 0,0 -13,0.7 -12.3,2.3 -11.5,3.7 -10.5,4.8 -9.3,6.1 -8,7 -6.5,7.8 -4.9,8.7 -3,9.2 -1,9.8 0,0 0,0 1,9.7 3,9.2 4.9,8.7 6.5,7.8 8,7.1 9.3,6 10.5,4.8 11.5,3.7 12.3,2.3 13,0.8 0,0 0,0 12.9,-0.8 12.3,-2.3 11.5,-3.7 10.5,-4.8 9.3,-6 8,-7.1 6.5,-7.8 4.9,-8.7 3,-9.2 1.1,-9.7 0,0 0,0 M 0,0 1360,0 1360,1760 0,1760 0,0 z"
         inkscape:connector-curvature="0" />
    </clipPath>
    <clipPath
       id="clipPath4227"
       clipPathUnits="userSpaceOnUse">
      <path
         id="path4229"
         d="m 580,380 0,0 -1.1,-9.8 -3,-9.2 -4.9,-8.6 -6.5,-7.9 -8,-7 -9.3,-6 -10.5,-4.8 -11.5,-3.7 -12.3,-2.3 -12.9,-0.7 0,0 0,0 -13,0.7 -12.3,2.3 -11.5,3.7 -10.5,4.8 -9.3,6 -8,7 -6.5,7.9 -4.9,8.6 -3,9.2 -1,9.8 0,0 0,0 1,9.7 3,9.2 4.9,8.6 6.5,7.9 8,7 9.3,6 10.5,4.8 11.5,3.7 12.3,2.3 13,0.8 0,0 0,0 12.9,-0.8 12.3,-2.3 11.5,-3.7 10.5,-4.8 9.3,-6 8,-7 6.5,-7.9 4.9,-8.6 3,-9.2 1.1,-9.7 0,0 0,0 m 0,200.1 0,0 -1.1,-9.8 -3,-9.2 -4.9,-8.7 -6.5,-7.8 -8,-7 -9.3,-6.1 -10.5,-4.8 -11.5,-3.7 -12.3,-2.3 -12.9,-0.7 0,0 0,0 -13,0.7 -12.3,2.3 -11.5,3.7 -10.5,4.8 -9.3,6.1 -8,7 -6.5,7.8 -4.9,8.7 -3,9.2 -1,9.8 0,0 0,0 1,9.7 3,9.3 4.9,8.6 6.5,7.9 8,7 9.3,6 10.5,4.9 11.5,3.7 12.3,2.3 13,0.8 0,0 0,0 12.9,-0.8 12.3,-2.3 11.5,-3.7 10.5,-4.9 9.3,-6 8,-7 6.5,-7.9 4.9,-8.6 3,-9.3 1.1,-9.7 0,0 0,0 M 0,0 1360,0 1360,1760 0,1760 0,0 z"
         inkscape:connector-curvature="0" />
    </clipPath>
    <clipPath
       id="clipPath4209"
       clipPathUnits="userSpaceOnUse">
      <path
         id="path4211"
         d="m 580,380 0,0 -1.1,-9.8 -3,-9.2 -4.9,-8.6 -6.5,-7.9 -8,-7 -9.3,-6 -10.5,-4.8 -11.5,-3.7 -12.3,-2.3 -12.9,-0.7 0,0 0,0 -13,0.7 -12.3,2.3 -11.5,3.7 -10.5,4.8 -9.3,6 -8,7 -6.5,7.9 -4.9,8.6 -3,9.2 -1,9.8 0,0 0,0 1,9.7 3,9.2 4.9,8.6 6.5,7.9 8,7 9.3,6 10.5,4.8 11.5,3.7 12.3,2.3 13,0.8 0,0 0,0 12.9,-0.8 12.3,-2.3 11.5,-3.7 10.5,-4.8 9.3,-6 8,-7 6.5,-7.9 4.9,-8.6 3,-9.2 1.1,-9.7 0,0 0,0 m 0,200.1 0,0 -1.1,-9.8 -3,-9.2 -4.9,-8.7 -6.5,-7.8 -8,-7 -9.3,-6.1 -10.5,-4.8 -11.5,-3.7 -12.3,-2.3 -12.9,-0.7 0,0 0,0 -13,0.7 -12.3,2.3 -11.5,3.7 -10.5,4.8 -9.3,6.1 -8,7 -6.5,7.8 -4.9,8.7 -3,9.2 -1,9.8 0,0 0,0 1,9.7 3,9.3 4.9,8.6 6.5,7.9 8,7 9.3,6 10.5,4.9 11.5,3.7 12.3,2.3 13,0.8 0,0 0,0 12.9,-0.8 12.3,-2.3 11.5,-3.7 10.5,-4.9 9.3,-6 8,-7 6.5,-7.9 4.9,-8.6 3,-9.3 1.1,-9.7 0,0 0,0 M 0,0 1360,0 1360,1760 0,1760 0,0 z"
         inkscape:connector-curvature="0" />
    </clipPath>
    <clipPath
       id="clipPath4183"
       clipPathUnits="userSpaceOnUse">
      <path
         id="path4185"
         d="m 580,380 0,0 -1.1,-9.8 -3,-9.2 -4.9,-8.6 -6.5,-7.9 -8,-7 -9.3,-6 -10.5,-4.8 -11.5,-3.7 -12.3,-2.3 -12.9,-0.7 0,0 0,0 -13,0.7 -12.3,2.3 -11.5,3.7 -10.5,4.8 -9.3,6 -8,7 -6.5,7.9 -4.9,8.6 -3,9.2 -1,9.8 0,0 0,0 1,9.7 3,9.2 4.9,8.6 6.5,7.9 8,7 9.3,6 10.5,4.8 11.5,3.7 12.3,2.3 13,0.8 0,0 0,0 12.9,-0.8 12.3,-2.3 11.5,-3.7 10.5,-4.8 9.3,-6 8,-7 6.5,-7.9 4.9,-8.6 3,-9.2 1.1,-9.7 0,0 0,0 m -180,200.1 0,0 -1.1,-9.8 -3,-9.2 -4.9,-8.7 -6.5,-7.8 -8,-7 -9.3,-6.1 -10.5,-4.8 -11.5,-3.7 -12.3,-2.3 -12.9,-0.7 0,0 0,0 -13,0.7 -12.3,2.3 -11.5,3.7 -10.5,4.8 -9.3,6.1 -8,7 -6.5,7.8 -4.9,8.7 -3,9.2 -1,9.8 0,0 0,0 1,9.7 3,9.3 4.9,8.6 6.5,7.9 8,7 9.3,6 10.5,4.9 11.5,3.7 12.3,2.3 13,0.8 0,0 0,0 12.9,-0.8 12.3,-2.3 11.5,-3.7 10.5,-4.9 9.3,-6 8,-7 6.5,-7.9 4.9,-8.6 3,-9.3 1.1,-9.7 0,0 0,0 M 0,0 1360,0 1360,1760 0,1760 0,0 z"
         inkscape:connector-curvature="0" />
    </clipPath>
    <clipPath
       id="clipPath4165"
       clipPathUnits="userSpaceOnUse">
      <path
         id="path4167"
         d="m 580,380 0,0 -1.1,-9.8 -3,-9.2 -4.9,-8.6 -6.5,-7.9 -8,-7 -9.3,-6 -10.5,-4.8 -11.5,-3.7 -12.3,-2.3 -12.9,-0.7 0,0 0,0 -13,0.7 -12.3,2.3 -11.5,3.7 -10.5,4.8 -9.3,6 -8,7 -6.5,7.9 -4.9,8.6 -3,9.2 -1,9.8 0,0 0,0 1,9.7 3,9.2 4.9,8.6 6.5,7.9 8,7 9.3,6 10.5,4.8 11.5,3.7 12.3,2.3 13,0.8 0,0 0,0 12.9,-0.8 12.3,-2.3 11.5,-3.7 10.5,-4.8 9.3,-6 8,-7 6.5,-7.9 4.9,-8.6 3,-9.2 1.1,-9.7 0,0 0,0 m -180,200.1 0,0 -1.1,-9.8 -3,-9.2 -4.9,-8.7 -6.5,-7.8 -8,-7 -9.3,-6.1 -10.5,-4.8 -11.5,-3.7 -12.3,-2.3 -12.9,-0.7 0,0 0,0 -13,0.7 -12.3,2.3 -11.5,3.7 -10.5,4.8 -9.3,6.1 -8,7 -6.5,7.8 -4.9,8.7 -3,9.2 -1,9.8 0,0 0,0 1,9.7 3,9.3 4.9,8.6 6.5,7.9 8,7 9.3,6 10.5,4.9 11.5,3.7 12.3,2.3 13,0.8 0,0 0,0 12.9,-0.8 12.3,-2.3 11.5,-3.7 10.5,-4.9 9.3,-6 8,-7 6.5,-7.9 4.9,-8.6 3,-9.3 1.1,-9.7 0,0 0,0 M 0,0 1360,0 1360,1760 0,1760 0,0 z"
         inkscape:connector-curvature="0" />
    </clipPath>
    <clipPath
       id="clipPath4139"
       clipPathUnits="userSpaceOnUse">
      <path
         id="path4141"
         d="m 580,380 0,0 -1.1,-9.8 -3,-9.2 -4.9,-8.6 -6.5,-7.9 -8,-7 -9.3,-6 -10.5,-4.8 -11.5,-3.7 -12.3,-2.3 -12.9,-0.7 0,0 0,0 -13,0.7 -12.3,2.3 -11.5,3.7 -10.5,4.8 -9.3,6 -8,7 -6.5,7.9 -4.9,8.6 -3,9.2 -1,9.8 0,0 0,0 1,9.7 3,9.2 4.9,8.6 6.5,7.9 8,7 9.3,6 10.5,4.8 11.5,3.7 12.3,2.3 13,0.8 0,0 0,0 12.9,-0.8 12.3,-2.3 11.5,-3.7 10.5,-4.8 9.3,-6 8,-7 6.5,-7.9 4.9,-8.6 3,-9.2 1.1,-9.7 0,0 0,0 m 100,400.4 0,0 -1.1,-9.8 -3,-9.2 -4.9,-8.7 -6.5,-7.8 -8,-7 -9.3,-6.1 -10.5,-4.8 -11.5,-3.7 -12.3,-2.3 -12.9,-0.7 0,0 0,0 -13,0.7 -12.3,2.3 -11.5,3.7 -10.5,4.8 -9.3,6.1 -8,7 -6.5,7.8 -4.9,8.7 -3,9.2 -1,9.8 0,0 0,0 1,9.7 3,9.2 4.9,8.7 6.5,7.8 8,7.1 9.3,6 10.5,4.8 11.5,3.7 12.3,2.3 13,0.8 0,0 0,0 12.9,-0.8 12.3,-2.3 11.5,-3.7 10.5,-4.8 9.3,-6 8,-7.1 6.5,-7.8 4.9,-8.7 3,-9.2 1.1,-9.7 0,0 0,0 M 0,0 1360,0 1360,1760 0,1760 0,0 z"
         inkscape:connector-curvature="0" />
    </clipPath>
    <clipPath
       id="clipPath4121"
       clipPathUnits="userSpaceOnUse">
      <path
         id="path4123"
         d="m 580,380 0,0 -1.1,-9.8 -3,-9.2 -4.9,-8.6 -6.5,-7.9 -8,-7 -9.3,-6 -10.5,-4.8 -11.5,-3.7 -12.3,-2.3 -12.9,-0.7 0,0 0,0 -13,0.7 -12.3,2.3 -11.5,3.7 -10.5,4.8 -9.3,6 -8,7 -6.5,7.9 -4.9,8.6 -3,9.2 -1,9.8 0,0 0,0 1,9.7 3,9.2 4.9,8.6 6.5,7.9 8,7 9.3,6 10.5,4.8 11.5,3.7 12.3,2.3 13,0.8 0,0 0,0 12.9,-0.8 12.3,-2.3 11.5,-3.7 10.5,-4.8 9.3,-6 8,-7 6.5,-7.9 4.9,-8.6 3,-9.2 1.1,-9.7 0,0 0,0 m 100,400.4 0,0 -1.1,-9.8 -3,-9.2 -4.9,-8.7 -6.5,-7.8 -8,-7 -9.3,-6.1 -10.5,-4.8 -11.5,-3.7 -12.3,-2.3 -12.9,-0.7 0,0 0,0 -13,0.7 -12.3,2.3 -11.5,3.7 -10.5,4.8 -9.3,6.1 -8,7 -6.5,7.8 -4.9,8.7 -3,9.2 -1,9.8 0,0 0,0 1,9.7 3,9.2 4.9,8.7 6.5,7.8 8,7.1 9.3,6 10.5,4.8 11.5,3.7 12.3,2.3 13,0.8 0,0 0,0 12.9,-0.8 12.3,-2.3 11.5,-3.7 10.5,-4.8 9.3,-6 8,-7.1 6.5,-7.8 4.9,-8.7 3,-9.2 1.1,-9.7 0,0 0,0 M 0,0 1360,0 1360,1760 0,1760 0,0 z"
         inkscape:connector-curvature="0" />
    </clipPath>
  </defs>
  <sodipodi:namedview
     id="base"
     pagecolor="#ffffff"
     bordercolor="#666666"
     borderopacity="1.0"
     inkscape:pageopacity="0.0"
     inkscape:pageshadow="2"
     inkscape:zoom="0.35"
     inkscape:cx="375"
     inkscape:cy="520"
     inkscape:document-units="px"
     inkscape:current-layer="layer1"
     showgrid="false"
     units="in"
     inkscape:window-width="951"
     inkscape:window-height="680"
     inkscape:window-x="309"
     inkscape:window-y="83"
     inkscape:window-maximized="0" />
  <metadata
     id="metadata3705">
    <rdf:RDF>
      <cc:Work
         rdf:about="">
        <dc:format>image/svg+xml</dc:format>
        <dc:type
           rdf:resource="http://purl.org/dc/dcmitype/StillImage" />
        <dc:title></dc:title>
      </cc:Work>
    </rdf:RDF>
  </metadata>
  <g
     inkscape:label="Layer 1"
     inkscape:groupmode="layer"
     id="layer1"
     transform="translate(0,-630.25975)">
    <g
       transform="matrix(0.5625,0,0,0.5625,-45.357139,494.50504)"
       inkscape:label="simulation"
       id="g3735">
      <g
         id="g3737">
        <path
           id="path3739"
           style="fill:#ffffff;fill-opacity:1;fill-rule:nonzero;stroke:none"
           d="m 0,0 1360,0 0,1760 L 0,1760 0,0 z"
           inkscape:connector-curvature="0" />
      </g>
      <g
         id="g3741">
        <g
           id="g3743">
          <g
             id="g3745">
            <g
               id="g3747">
              <path
                 id="path3749"
                 style="fill:#ffffff;fill-opacity:1;fill-rule:nonzero;stroke:none"
                 d="m 580,380 c 0,33.1 -35.8,60 -80,60 -44.2,0 -80,-26.9 -80,-60 0,-33.1 35.8,-60 80,-60 44.2,0 80,26.9 80,60 z"
                 inkscape:connector-curvature="0" />
            </g>
            <g
               id="g3751">
              <g
                 id="g3753">
                <g
                   id="g3755">
                  <path
                     id="path3757"
                     style="fill:none;stroke:#000000;stroke-width:2;stroke-linecap:butt;stroke-linejoin:miter;stroke-miterlimit:10;stroke-opacity:1;stroke-dasharray:none"
                     d="m 580,380 c 0,33.1 -35.8,60 -80,60 -44.2,0 -80,-26.9 -80,-60 0,-33.1 35.8,-60 80,-60 44.2,0 80,26.9 80,60 z"
                     inkscape:connector-curvature="0" />
                </g>
              </g>
            </g>
            <g
               id="g3759">
              <g
                 id="g3761">
                <g
                   transform="matrix(0.05,0,0,0.05,462.1,343.5)"
                   id="g3763">
                  <g
                     transform="translate(0,792)"
                     id="g3765">
                    <g
                       id="g3767">
                      <g
                         id="g3769">
                        <path
                           id="path3771"
                           style="fill:#000000;fill-opacity:1;fill-rule:nonzero;stroke:none"
                           d="m 185,-189 c -5,-48 -123,-54 -124,2 14,75 158,14 163,119 C 227,10 103,19 49,-13 32,-23 21,-39 16,-59 l 33,-7 c 5,56 141,63 141,-1 0,-78 -155,-14 -162,-118 -5,-82 145,-84 179,-34 5,7 8,16 11,25"
                           inkscape:connector-curvature="0" />
                      </g>
                    </g>
                  </g>
                  <g
                     transform="translate(240,792)"
                     id="g3773">
                    <g
                       id="g3775">
                      <g
                         id="g3777">
                        <path
                           id="path3779"
                           style="fill:#000000;fill-opacity:1;fill-rule:nonzero;stroke:none"
                           d="m 24,-231 0,-30 32,0 0,30 -32,0 z m 0,231 0,-190 32,0 0,190 -32,0"
                           inkscape:connector-curvature="0" />
                      </g>
                    </g>
                  </g>
                  <g
                     transform="translate(319,792)"
                     id="g3781">
                    <g
                       id="g3783">
                      <g
                         id="g3785">
                        <path
                           id="path3787"
                           style="fill:#000000;fill-opacity:1;fill-rule:nonzero;stroke:none"
                           d="m 210,-169 c -67,3 -38,105 -44,169 l -31,0 0,-121 c 0,-29 -5,-50 -35,-48 -66,4 -38,104 -44,169 l -31,0 -1,-190 30,0 c 1,10 -1,24 2,32 10,-44 99,-50 107,0 11,-21 27,-35 58,-36 85,-2 47,119 55,194 l -31,0 0,-121 c 0,-29 -5,-49 -35,-48"
                           inkscape:connector-curvature="0" />
                      </g>
                    </g>
                  </g>
                  <g
                     transform="translate(618,792)"
                     id="g3789">
                    <g
                       id="g3791">
                      <g
                         id="g3793">
                        <path
                           id="path3795"
                           style="fill:#000000;fill-opacity:1;fill-rule:nonzero;stroke:none"
                           d="M 84,4 C -5,8 30,-112 23,-190 l 32,0 0,120 c 0,31 7,50 39,49 72,-2 45,-101 50,-169 l 31,0 1,190 -30,0 c -1,-10 1,-25 -2,-33 -11,22 -28,36 -60,37"
                           inkscape:connector-curvature="0" />
                      </g>
                    </g>
                  </g>
                  <g
                     transform="translate(818,792)"
                     id="g3797">
                    <g
                       id="g3799">
                      <g
                         id="g3801">
                        <path
                           id="path3803"
                           style="fill:#000000;fill-opacity:1;fill-rule:nonzero;stroke:none"
                           d="m 24,0 0,-261 32,0 0,261 -32,0"
                           inkscape:connector-curvature="0" />
                      </g>
                    </g>
                  </g>
                  <g
                     transform="translate(897,792)"
                     id="g3805">
                    <g
                       id="g3807">
                      <g
                         id="g3809">
                        <path
                           id="path3811"
                           style="fill:#000000;fill-opacity:1;fill-rule:nonzero;stroke:none"
                           d="M 141,-36 C 126,-15 110,5 73,4 37,3 15,-17 15,-53 c -1,-64 63,-63 125,-63 3,-35 -9,-54 -41,-54 -24,1 -41,7 -42,31 l -33,-3 c 5,-37 33,-52 76,-52 45,0 72,20 72,64 l 0,82 c -1,20 7,32 28,27 l 0,20 C 169,8 139,-3 141,-36 z M 48,-53 c 0,20 12,33 32,33 41,-3 63,-29 60,-74 -43,2 -92,-5 -92,41"
                           inkscape:connector-curvature="0" />
                      </g>
                    </g>
                  </g>
                  <g
                     transform="translate(1097,792)"
                     id="g3813">
                    <g
                       id="g3815">
                      <g
                         id="g3817">
                        <path
                           id="path3819"
                           style="fill:#000000;fill-opacity:1;fill-rule:nonzero;stroke:none"
                           d="m 59,-47 c -2,24 18,29 38,22 l 0,24 C 64,9 27,4 27,-40 l 0,-127 -22,0 0,-23 24,0 9,-43 21,0 0,43 35,0 0,23 -35,0 0,120"
                           inkscape:connector-curvature="0" />
                      </g>
                    </g>
                  </g>
                  <g
                     transform="translate(1197,792)"
                     id="g3821">
                    <g
                       id="g3823">
                      <g
                         id="g3825">
                        <path
                           id="path3827"
                           style="fill:#000000;fill-opacity:1;fill-rule:nonzero;stroke:none"
                           d="m 100,-194 c 62,-1 85,37 85,99 1,63 -27,99 -86,99 -59,0 -83,-39 -84,-99 0,-66 28,-99 85,-99 z m -1,174 c 44,1 53,-31 53,-75 0,-43 -8,-75 -51,-75 -43,0 -53,32 -53,75 0,43 10,74 51,75"
                           inkscape:connector-curvature="0" />
                      </g>
                    </g>
                  </g>
                  <g
                     transform="translate(1397,792)"
                     id="g3829">
                    <g
                       id="g3831">
                      <g
                         id="g3833">
                        <path
                           id="path3835"
                           style="fill:#000000;fill-opacity:1;fill-rule:nonzero;stroke:none"
                           d="M 114,-163 C 36,-179 61,-72 57,0 l -32,0 -1,-190 30,0 c 1,12 -1,29 2,39 6,-27 23,-49 58,-41 l 0,29"
                           inkscape:connector-curvature="0" />
                      </g>
                    </g>
                  </g>
                </g>
              </g>
            </g>
          </g>
        </g>
        <g
           id="g3837">
          <g
             id="g3839">
            <g
               id="g3841">
              <path
                 id="path3843"
                 style="fill:#ffffff;fill-opacity:1;fill-rule:nonzero;stroke:none"
                 d="m 580,580.1 c 0,33.2 -35.8,60.2 -80,60.2 -44.2,0 -80,-27 -80,-60.2 0,-33.2 35.8,-60.1 80,-60.1 44.2,0 80,26.9 80,60.1 z"
                 inkscape:connector-curvature="0" />
            </g>
            <g
               id="g3845">
              <g
                 id="g3847">
                <g
                   id="g3849">
                  <path
                     id="path3851"
                     style="fill:none;stroke:#000000;stroke-width:2;stroke-linecap:butt;stroke-linejoin:miter;stroke-miterlimit:10;stroke-opacity:1;stroke-dasharray:none"
                     d="m 580,580.1 c 0,33.2 -35.8,60.2 -80,60.2 -44.2,0 -80,-27 -80,-60.2 0,-33.2 35.8,-60.1 80,-60.1 44.2,0 80,26.9 80,60.1 z"
                     inkscape:connector-curvature="0" />
                </g>
              </g>
            </g>
            <g
               id="g3853">
              <g
                 id="g3855">
                <g
                   transform="matrix(0.05,0,0,0.05,442.6,543.9)"
                   id="g3857">
                  <g
                     transform="translate(0,792)"
                     id="g3859">
                    <g
                       id="g3861">
                      <g
                         id="g3863">
                        <path
                           id="path3865"
                           style="fill:#000000;fill-opacity:1;fill-rule:nonzero;stroke:none"
                           d="m 185,-189 c -5,-48 -123,-54 -124,2 14,75 158,14 163,119 C 227,10 103,19 49,-13 32,-23 21,-39 16,-59 l 33,-7 c 5,56 141,63 141,-1 0,-78 -155,-14 -162,-118 -5,-82 145,-84 179,-34 5,7 8,16 11,25"
                           inkscape:connector-curvature="0" />
                      </g>
                    </g>
                  </g>
                  <g
                     transform="translate(240,792)"
                     id="g3867">
                    <g
                       id="g3869">
                      <g
                         id="g3871">
                        <path
                           id="path3873"
                           style="fill:#000000;fill-opacity:1;fill-rule:nonzero;stroke:none"
                           d="m 100,-194 c 63,0 86,42 84,106 l -135,0 c 0,40 14,67 53,68 26,1 43,-12 49,-29 l 28,8 C 168,-13 142,4 102,4 44,4 14,-33 15,-96 c 1,-61 26,-98 85,-98 z m 52,81 c 6,-60 -76,-77 -97,-28 -3,7 -6,17 -6,28 l 103,0"
                           inkscape:connector-curvature="0" />
                      </g>
                    </g>
                  </g>
                  <g
                     transform="translate(440,792)"
                     id="g3875">
                    <g
                       id="g3877">
                      <g
                         id="g3879">
                        <path
                           id="path3881"
                           style="fill:#000000;fill-opacity:1;fill-rule:nonzero;stroke:none"
                           d="M 114,-163 C 36,-179 61,-72 57,0 l -32,0 -1,-190 30,0 c 1,12 -1,29 2,39 6,-27 23,-49 58,-41 l 0,29"
                           inkscape:connector-curvature="0" />
                      </g>
                    </g>
                  </g>
                  <g
                     transform="translate(559,792)"
                     id="g3883">
                    <g
                       id="g3885">
                      <g
                         id="g3887">
                        <path
                           id="path3889"
                           style="fill:#000000;fill-opacity:1;fill-rule:nonzero;stroke:none"
                           d="M 108,0 70,0 1,-190 l 34,0 54,165 56,-165 34,0"
                           inkscape:connector-curvature="0" />
                      </g>
                    </g>
                  </g>
                  <g
                     transform="translate(739,792)"
                     id="g3891">
                    <g
                       id="g3893">
                      <g
                         id="g3895">
                        <path
                           id="path3897"
                           style="fill:#000000;fill-opacity:1;fill-rule:nonzero;stroke:none"
                           d="m 100,-194 c 63,0 86,42 84,106 l -135,0 c 0,40 14,67 53,68 26,1 43,-12 49,-29 l 28,8 C 168,-13 142,4 102,4 44,4 14,-33 15,-96 c 1,-61 26,-98 85,-98 z m 52,81 c 6,-60 -76,-77 -97,-28 -3,7 -6,17 -6,28 l 103,0"
                           inkscape:connector-curvature="0" />
                      </g>
                    </g>
                  </g>
                  <g
                     transform="translate(939,792)"
                     id="g3899">
                    <g
                       id="g3901">
                      <g
                         id="g3903">
                        <path
                           id="path3905"
                           style="fill:#000000;fill-opacity:1;fill-rule:nonzero;stroke:none"
                           d="M 114,-163 C 36,-179 61,-72 57,0 l -32,0 -1,-190 30,0 c 1,12 -1,29 2,39 6,-27 23,-49 58,-41 l 0,29"
                           inkscape:connector-curvature="0" />
                      </g>
                    </g>
                  </g>
                  <g
                     transform="translate(1058,792)"
                     id="g3907">
                    <g
                       id="g3909">
                      <g
                         id="g3911" />
                    </g>
                  </g>
                </g>
              </g>
              <g
                 id="g3913">
                <g
                   transform="matrix(0.05,0,0,0.05,500.5,543.9)"
                   id="g3915">
                  <g
                     transform="translate(0,792)"
                     id="g3917">
                    <g
                       id="g3919">
                      <g
                         id="g3921">
                        <path
                           id="path3923"
                           style="fill:#000000;fill-opacity:1;fill-rule:nonzero;stroke:none"
                           d="m 127,-220 0,220 -34,0 0,-220 -85,0 0,-28 204,0 0,28 -85,0"
                           inkscape:connector-curvature="0" />
                      </g>
                    </g>
                  </g>
                  <g
                     transform="translate(219,792)"
                     id="g3925">
                    <g
                       id="g3927">
                      <g
                         id="g3929">
                        <path
                           id="path3931"
                           style="fill:#000000;fill-opacity:1;fill-rule:nonzero;stroke:none"
                           d="M 106,-169 C 34,-169 62,-67 57,0 l -32,0 0,-261 32,0 -1,103 c 12,-21 28,-36 61,-36 89,0 53,116 60,194 l -32,0 0,-121 c 2,-32 -8,-49 -39,-48"
                           inkscape:connector-curvature="0" />
                      </g>
                    </g>
                  </g>
                  <g
                     transform="translate(419,792)"
                     id="g3933">
                    <g
                       id="g3935">
                      <g
                         id="g3937">
                        <path
                           id="path3939"
                           style="fill:#000000;fill-opacity:1;fill-rule:nonzero;stroke:none"
                           d="M 114,-163 C 36,-179 61,-72 57,0 l -32,0 -1,-190 30,0 c 1,12 -1,29 2,39 6,-27 23,-49 58,-41 l 0,29"
                           inkscape:connector-curvature="0" />
                      </g>
                    </g>
                  </g>
                  <g
                     transform="translate(538,792)"
                     id="g3941">
                    <g
                       id="g3943">
                      <g
                         id="g3945">
                        <path
                           id="path3947"
                           style="fill:#000000;fill-opacity:1;fill-rule:nonzero;stroke:none"
                           d="m 100,-194 c 63,0 86,42 84,106 l -135,0 c 0,40 14,67 53,68 26,1 43,-12 49,-29 l 28,8 C 168,-13 142,4 102,4 44,4 14,-33 15,-96 c 1,-61 26,-98 85,-98 z m 52,81 c 6,-60 -76,-77 -97,-28 -3,7 -6,17 -6,28 l 103,0"
                           inkscape:connector-curvature="0" />
                      </g>
                    </g>
                  </g>
                  <g
                     transform="translate(738,792)"
                     id="g3949">
                    <g
                       id="g3951">
                      <g
                         id="g3953">
                        <path
                           id="path3955"
                           style="fill:#000000;fill-opacity:1;fill-rule:nonzero;stroke:none"
                           d="M 141,-36 C 126,-15 110,5 73,4 37,3 15,-17 15,-53 c -1,-64 63,-63 125,-63 3,-35 -9,-54 -41,-54 -24,1 -41,7 -42,31 l -33,-3 c 5,-37 33,-52 76,-52 45,0 72,20 72,64 l 0,82 c -1,20 7,32 28,27 l 0,20 C 169,8 139,-3 141,-36 z M 48,-53 c 0,20 12,33 32,33 41,-3 63,-29 60,-74 -43,2 -92,-5 -92,41"
                           inkscape:connector-curvature="0" />
                      </g>
                    </g>
                  </g>
                  <g
                     transform="translate(938,792)"
                     id="g3957">
                    <g
                       id="g3959">
                      <g
                         id="g3961">
                        <path
                           id="path3963"
                           style="fill:#000000;fill-opacity:1;fill-rule:nonzero;stroke:none"
                           d="m 85,-194 c 31,0 48,13 60,33 l -1,-100 32,0 1,261 -30,0 c -2,-10 0,-23 -3,-31 C 134,-8 116,4 85,4 32,4 16,-35 15,-94 c 0,-66 23,-100 70,-100 z m 9,24 c -40,0 -46,34 -46,75 0,40 6,74 45,74 42,0 51,-32 51,-76 0,-42 -9,-74 -50,-73"
                           inkscape:connector-curvature="0" />
                      </g>
                    </g>
                  </g>
                </g>
              </g>
            </g>
          </g>
        </g>
        <g
           id="g3965">
          <g
             id="g3967">
            <g
               id="g3969">
              <path
                 id="path3971"
                 style="fill:#ffffff;fill-opacity:1;fill-rule:nonzero;stroke:none"
                 d="m 680,780.4 c 0,33.2 -35.8,60.1 -80,60.1 -44.2,0 -80,-26.9 -80,-60.1 0,-33.2 35.8,-60.1 80,-60.1 44.2,0 80,26.9 80,60.1 z"
                 inkscape:connector-curvature="0" />
            </g>
            <g
               id="g3973">
              <g
                 id="g3975">
                <g
                   id="g3977">
                  <path
                     id="path3979"
                     style="fill:none;stroke:#000000;stroke-width:2;stroke-linecap:butt;stroke-linejoin:miter;stroke-miterlimit:10;stroke-opacity:1;stroke-dasharray:none"
                     d="m 680,780.4 c 0,33.2 -35.8,60.1 -80,60.1 -44.2,0 -80,-26.9 -80,-60.1 0,-33.2 35.8,-60.1 80,-60.1 44.2,0 80,26.9 80,60.1 z"
                     inkscape:connector-curvature="0" />
                </g>
              </g>
            </g>
            <g
               id="g3981">
              <g
                 id="g3983">
                <g
                   transform="matrix(0.05,0,0,0.05,576.5,744.2)"
                   id="g3985">
                  <g
                     transform="translate(0,792)"
                     id="g3987">
                    <g
                       id="g3989">
                      <g
                         id="g3991">
                        <path
                           id="path3993"
                           style="fill:#000000;fill-opacity:1;fill-rule:nonzero;stroke:none"
                           d="M 205,0 177,-72 64,-72 36,0 1,0 l 101,-248 38,0 99,248 -34,0 z m -38,-99 -47,-123 c -12,45 -31,82 -46,123 l 93,0"
                           inkscape:connector-curvature="0" />
                      </g>
                    </g>
                  </g>
                  <g
                     transform="translate(240,792)"
                     id="g3995">
                    <g
                       id="g3997">
                      <g
                         id="g3999">
                        <path
                           id="path4001"
                           style="fill:#000000;fill-opacity:1;fill-rule:nonzero;stroke:none"
                           d="M 177,-190 C 167,-65 218,103 67,71 44,65 29,51 23,28 l 32,-5 c 15,47 100,32 89,-28 l 0,-30 C 133,-14 115,1 83,1 29,1 15,-40 15,-95 c 0,-56 16,-97 71,-98 29,-1 48,16 59,35 1,-10 0,-23 2,-32 l 30,0 z M 94,-22 c 36,0 50,-32 50,-73 0,-42 -14,-75 -50,-75 -39,0 -46,34 -46,75 0,41 6,73 46,73"
                           inkscape:connector-curvature="0" />
                      </g>
                    </g>
                  </g>
                  <g
                     transform="translate(440,792)"
                     id="g4003">
                    <g
                       id="g4005">
                      <g
                         id="g4007">
                        <path
                           id="path4009"
                           style="fill:#000000;fill-opacity:1;fill-rule:nonzero;stroke:none"
                           d="m 100,-194 c 63,0 86,42 84,106 l -135,0 c 0,40 14,67 53,68 26,1 43,-12 49,-29 l 28,8 C 168,-13 142,4 102,4 44,4 14,-33 15,-96 c 1,-61 26,-98 85,-98 z m 52,81 c 6,-60 -76,-77 -97,-28 -3,7 -6,17 -6,28 l 103,0"
                           inkscape:connector-curvature="0" />
                      </g>
                    </g>
                  </g>
                  <g
                     transform="translate(640,792)"
                     id="g4011">
                    <g
                       id="g4013">
                      <g
                         id="g4015">
                        <path
                           id="path4017"
                           style="fill:#000000;fill-opacity:1;fill-rule:nonzero;stroke:none"
                           d="m 117,-194 c 89,-4 53,116 60,194 l -32,0 0,-121 c 0,-31 -8,-49 -39,-48 -72,2 -44,102 -49,169 l -32,0 -1,-190 30,0 c 1,10 -1,24 2,32 11,-22 29,-35 61,-36"
                           inkscape:connector-curvature="0" />
                      </g>
                    </g>
                  </g>
                  <g
                     transform="translate(840,792)"
                     id="g4019">
                    <g
                       id="g4021">
                      <g
                         id="g4023">
                        <path
                           id="path4025"
                           style="fill:#000000;fill-opacity:1;fill-rule:nonzero;stroke:none"
                           d="m 59,-47 c -2,24 18,29 38,22 l 0,24 C 64,9 27,4 27,-40 l 0,-127 -22,0 0,-23 24,0 9,-43 21,0 0,43 35,0 0,23 -35,0 0,120"
                           inkscape:connector-curvature="0" />
                      </g>
                    </g>
                  </g>
                </g>
              </g>
            </g>
          </g>
        </g>
        <g
           id="g4027">
          <g
             id="g4029">
            <g
               id="g4031">
              <path
                 id="path4033"
                 style="fill:#ffffff;fill-opacity:1;fill-rule:nonzero;stroke:none"
                 d="m 400,580.1 c 0,33.2 -35.8,60.2 -80,60.2 -44.2,0 -80,-27 -80,-60.2 0,-33.2 35.8,-60.1 80,-60.1 44.2,0 80,26.9 80,60.1 z"
                 inkscape:connector-curvature="0" />
            </g>
            <g
               id="g4035">
              <g
                 id="g4037">
                <g
                   id="g4039">
                  <path
                     id="path4041"
                     style="fill:none;stroke:#000000;stroke-width:2;stroke-linecap:butt;stroke-linejoin:miter;stroke-miterlimit:10;stroke-opacity:1;stroke-dasharray:none"
                     d="m 400,580.1 c 0,33.2 -35.8,60.2 -80,60.2 -44.2,0 -80,-27 -80,-60.2 0,-33.2 35.8,-60.1 80,-60.1 44.2,0 80,26.9 80,60.1 z"
                     inkscape:connector-curvature="0" />
                </g>
              </g>
            </g>
            <g
               id="g4043">
              <g
                 id="g4045">
                <g
                   transform="matrix(0.05,0,0,0.05,283.5,543.9)"
                   id="g4047">
                  <g
                     transform="translate(0,792)"
                     id="g4049">
                    <g
                       id="g4051">
                      <g
                         id="g4053">
                        <path
                           id="path4055"
                           style="fill:#000000;fill-opacity:1;fill-rule:nonzero;stroke:none"
                           d="m 240,0 2,-218 C 219,-142 188,-73 162,0 L 139,0 58,-218 59,0 30,0 l 0,-248 44,0 77,211 c 21,-75 51,-140 76,-211 l 43,0 0,248 -30,0"
                           inkscape:connector-curvature="0" />
                      </g>
                    </g>
                  </g>
                  <g
                     transform="translate(299,792)"
                     id="g4057">
                    <g
                       id="g4059">
                      <g
                         id="g4061">
                        <path
                           id="path4063"
                           style="fill:#000000;fill-opacity:1;fill-rule:nonzero;stroke:none"
                           d="m 100,-194 c 63,0 86,42 84,106 l -135,0 c 0,40 14,67 53,68 26,1 43,-12 49,-29 l 28,8 C 168,-13 142,4 102,4 44,4 14,-33 15,-96 c 1,-61 26,-98 85,-98 z m 52,81 c 6,-60 -76,-77 -97,-28 -3,7 -6,17 -6,28 l 103,0"
                           inkscape:connector-curvature="0" />
                      </g>
                    </g>
                  </g>
                  <g
                     transform="translate(499,792)"
                     id="g4065">
                    <g
                       id="g4067">
                      <g
                         id="g4069">
                        <path
                           id="path4071"
                           style="fill:#000000;fill-opacity:1;fill-rule:nonzero;stroke:none"
                           d="m 135,-143 c -3,-34 -86,-38 -87,0 15,53 115,12 119,90 4,78 -150,74 -157,8 l 28,-5 c 4,36 97,45 98,0 -10,-56 -113,-15 -118,-90 -4,-57 82,-63 122,-42 12,7 21,19 24,35"
                           inkscape:connector-curvature="0" />
                      </g>
                    </g>
                  </g>
                  <g
                     transform="translate(679,792)"
                     id="g4073">
                    <g
                       id="g4075">
                      <g
                         id="g4077">
                        <path
                           id="path4079"
                           style="fill:#000000;fill-opacity:1;fill-rule:nonzero;stroke:none"
                           d="m 135,-143 c -3,-34 -86,-38 -87,0 15,53 115,12 119,90 4,78 -150,74 -157,8 l 28,-5 c 4,36 97,45 98,0 -10,-56 -113,-15 -118,-90 -4,-57 82,-63 122,-42 12,7 21,19 24,35"
                           inkscape:connector-curvature="0" />
                      </g>
                    </g>
                  </g>
                  <g
                     transform="translate(859,792)"
                     id="g4081">
                    <g
                       id="g4083">
                      <g
                         id="g4085">
                        <path
                           id="path4087"
                           style="fill:#000000;fill-opacity:1;fill-rule:nonzero;stroke:none"
                           d="M 141,-36 C 126,-15 110,5 73,4 37,3 15,-17 15,-53 c -1,-64 63,-63 125,-63 3,-35 -9,-54 -41,-54 -24,1 -41,7 -42,31 l -33,-3 c 5,-37 33,-52 76,-52 45,0 72,20 72,64 l 0,82 c -1,20 7,32 28,27 l 0,20 C 169,8 139,-3 141,-36 z M 48,-53 c 0,20 12,33 32,33 41,-3 63,-29 60,-74 -43,2 -92,-5 -92,41"
                           inkscape:connector-curvature="0" />
                      </g>
                    </g>
                  </g>
                  <g
                     transform="translate(1059,792)"
                     id="g4089">
                    <g
                       id="g4091">
                      <g
                         id="g4093">
                        <path
                           id="path4095"
                           style="fill:#000000;fill-opacity:1;fill-rule:nonzero;stroke:none"
                           d="M 177,-190 C 167,-65 218,103 67,71 44,65 29,51 23,28 l 32,-5 c 15,47 100,32 89,-28 l 0,-30 C 133,-14 115,1 83,1 29,1 15,-40 15,-95 c 0,-56 16,-97 71,-98 29,-1 48,16 59,35 1,-10 0,-23 2,-32 l 30,0 z M 94,-22 c 36,0 50,-32 50,-73 0,-42 -14,-75 -50,-75 -39,0 -46,34 -46,75 0,41 6,73 46,73"
                           inkscape:connector-curvature="0" />
                      </g>
                    </g>
                  </g>
                  <g
                     transform="translate(1259,792)"
                     id="g4097">
                    <g
                       id="g4099">
                      <g
                         id="g4101">
                        <path
                           id="path4103"
                           style="fill:#000000;fill-opacity:1;fill-rule:nonzero;stroke:none"
                           d="m 100,-194 c 63,0 86,42 84,106 l -135,0 c 0,40 14,67 53,68 26,1 43,-12 49,-29 l 28,8 C 168,-13 142,4 102,4 44,4 14,-33 15,-96 c 1,-61 26,-98 85,-98 z m 52,81 c 6,-60 -76,-77 -97,-28 -3,7 -6,17 -6,28 l 103,0"
                           inkscape:connector-curvature="0" />
                      </g>
                    </g>
                  </g>
                </g>
              </g>
            </g>
          </g>
        </g>
        <g
           id="g4105">
          <g
             id="g4107">
            <g
               id="g4109">
              <g
                 id="g4111">
                <g
                   id="g4113">
                  <path
                     id="path4115"
                     style="fill:none;stroke:#000000;stroke-width:2;stroke-linecap:butt;stroke-linejoin:miter;stroke-miterlimit:10;stroke-opacity:1;stroke-dasharray:none"
                     d="m 532.4,434.9 0,40.1 c 0,2.8 2.2,5 5,5 l 70.9,0 c 2.7,0 5,2.2 5,5 l 0,236.1"
                     inkscape:connector-curvature="0" />
                </g>
              </g>
            </g>
            <g
               id="g4117">
              <g
                 clip-path="url(#clipPath4121)"
                 id="g4119">
                <g
                   id="g4125">
                  <g
                     id="g4127">
                    <path
                       id="path4129"
                       style="fill:none;stroke:#000000;stroke-width:2;stroke-linecap:butt;stroke-linejoin:miter;stroke-miterlimit:10;stroke-opacity:1;stroke-dasharray:none"
                       d="m 532.4,434.9 0,-3"
                       inkscape:connector-curvature="0" />
                  </g>
                </g>
              </g>
            </g>
            <g
               id="g4131">
              <path
                 id="path4133"
                 style="fill:#000000;fill-opacity:1;fill-rule:nonzero;stroke:none"
                 d="m 613.3,721.1 -4.6,-14.3 9.2,0 -4.6,14.3 z"
                 inkscape:connector-curvature="0" />
            </g>
            <g
               id="g4135">
              <g
                 clip-path="url(#clipPath4139)"
                 id="g4137">
                <g
                   id="g4143">
                  <g
                     id="g4145">
                    <path
                       id="path4147"
                       style="fill:none;stroke:#000000;stroke-width:2;stroke-linecap:butt;stroke-linejoin:miter;stroke-miterlimit:10;stroke-opacity:1;stroke-dasharray:none"
                       d="m 613.3,721.1 -4.6,-14.3 9.2,0 -4.6,14.3 z"
                       inkscape:connector-curvature="0" />
                  </g>
                </g>
              </g>
            </g>
          </g>
        </g>
        <g
           id="g4149">
          <g
             id="g4151">
            <g
               id="g4153">
              <g
                 id="g4155">
                <g
                   id="g4157">
                  <path
                     id="path4159"
                     style="fill:none;stroke:#000000;stroke-width:2;stroke-linecap:butt;stroke-linejoin:miter;stroke-miterlimit:10;stroke-opacity:1;stroke-dasharray:none"
                     d="m 474.2,436.8 0,36.6 c 0,2.8 -2.2,5 -5,5 l -144.2,0 c -2.8,0 -5,2.2 -5,5 l 0,36.6"
                     inkscape:connector-curvature="0" />
                </g>
              </g>
            </g>
            <g
               id="g4161">
              <g
                 clip-path="url(#clipPath4165)"
                 id="g4163">
                <g
                   id="g4169">
                  <g
                     id="g4171">
                    <path
                       id="path4173"
                       style="fill:none;stroke:#000000;stroke-width:2;stroke-linecap:butt;stroke-linejoin:miter;stroke-miterlimit:10;stroke-opacity:1;stroke-dasharray:none"
                       d="m 474.2,436.8 0,-3"
                       inkscape:connector-curvature="0" />
                  </g>
                </g>
              </g>
            </g>
            <g
               id="g4175">
              <path
                 id="path4177"
                 style="fill:#000000;fill-opacity:1;fill-rule:nonzero;stroke:none"
                 d="m 320,520 -4.6,-14.3 9.2,0 -4.6,14.3 z"
                 inkscape:connector-curvature="0" />
            </g>
            <g
               id="g4179">
              <g
                 clip-path="url(#clipPath4183)"
                 id="g4181">
                <g
                   id="g4187">
                  <g
                     id="g4189">
                    <path
                       id="path4191"
                       style="fill:none;stroke:#000000;stroke-width:2;stroke-linecap:butt;stroke-linejoin:miter;stroke-miterlimit:10;stroke-opacity:1;stroke-dasharray:none"
                       d="m 320,520 -4.6,-14.3 9.2,0 -4.6,14.3 z"
                       inkscape:connector-curvature="0" />
                  </g>
                </g>
              </g>
            </g>
          </g>
        </g>
        <g
           id="g4193">
          <g
             id="g4195">
            <g
               id="g4197">
              <g
                 id="g4199">
                <g
                   id="g4201">
                  <path
                     id="path4203"
                     style="fill:none;stroke:#000000;stroke-width:2;stroke-linecap:butt;stroke-linejoin:miter;stroke-miterlimit:10;stroke-opacity:1;stroke-dasharray:none"
                     d="m 500,440 0,80"
                     inkscape:connector-curvature="0" />
                </g>
              </g>
            </g>
            <g
               id="g4205">
              <g
                 clip-path="url(#clipPath4209)"
                 id="g4207">
                <g
                   id="g4213">
                  <g
                     id="g4215">
                    <path
                       id="path4217"
                       style="fill:none;stroke:#000000;stroke-width:2;stroke-linecap:butt;stroke-linejoin:miter;stroke-miterlimit:10;stroke-opacity:1;stroke-dasharray:none"
                       d="m 500,440 0,-3"
                       inkscape:connector-curvature="0" />
                  </g>
                </g>
              </g>
            </g>
            <g
               id="g4219">
              <path
                 id="path4221"
                 style="fill:#000000;fill-opacity:1;fill-rule:nonzero;stroke:none"
                 d="m 500,520 -4.6,-14.3 9.2,0 -4.6,14.3 z"
                 inkscape:connector-curvature="0" />
            </g>
            <g
               id="g4223">
              <g
                 clip-path="url(#clipPath4227)"
                 id="g4225">
                <g
                   id="g4231">
                  <g
                     id="g4233">
                    <path
                       id="path4235"
                       style="fill:none;stroke:#000000;stroke-width:2;stroke-linecap:butt;stroke-linejoin:miter;stroke-miterlimit:10;stroke-opacity:1;stroke-dasharray:none"
                       d="m 500,520 -4.6,-14.3 9.2,0 -4.6,14.3 z"
                       inkscape:connector-curvature="0" />
                  </g>
                </g>
              </g>
            </g>
          </g>
        </g>
        <g
           id="g4237">
          <g
             id="g4239">
            <g
               id="g4241">
              <g
                 id="g4243">
                <g
                   id="g4245">
                  <path
                     id="path4247"
                     style="fill:none;stroke:#000000;stroke-width:2;stroke-linecap:butt;stroke-linejoin:miter;stroke-miterlimit:10;stroke-opacity:1;stroke-dasharray:none"
                     d="m 500,640.3 0,35.4 c 0,2.8 2.2,5 5,5 l 75.9,0 c 2.7,0 5,2.3 5,5 l 0,35.5"
                     inkscape:connector-curvature="0" />
                </g>
              </g>
            </g>
            <g
               id="g4249">
              <g
                 clip-path="url(#clipPath4253)"
                 id="g4251">
                <g
                   id="g4257">
                  <g
                     id="g4259">
                    <path
                       id="path4261"
                       style="fill:none;stroke:#000000;stroke-width:2;stroke-linecap:butt;stroke-linejoin:miter;stroke-miterlimit:10;stroke-opacity:1;stroke-dasharray:none"
                       d="m 500,640.3 0,-3"
                       inkscape:connector-curvature="0" />
                  </g>
                </g>
              </g>
            </g>
            <g
               id="g4263">
              <path
                 id="path4265"
                 style="fill:#000000;fill-opacity:1;fill-rule:nonzero;stroke:none"
                 d="m 585.9,721.2 -4.7,-14.3 9.3,0 -4.6,14.3 z"
                 inkscape:connector-curvature="0" />
            </g>
            <g
               id="g4267">
              <g
                 clip-path="url(#clipPath4271)"
                 id="g4269">
                <g
                   id="g4275">
                  <g
                     id="g4277">
                    <path
                       id="path4279"
                       style="fill:none;stroke:#000000;stroke-width:2;stroke-linecap:butt;stroke-linejoin:miter;stroke-miterlimit:10;stroke-opacity:1;stroke-dasharray:none"
                       d="m 585.9,721.2 -4.7,-14.3 9.3,0 -4.6,14.3 z"
                       inkscape:connector-curvature="0" />
                  </g>
                </g>
              </g>
            </g>
          </g>
        </g>
      </g>
    </g>
  </g>
</svg>
